<?xml version="1.0" encoding="utf-8" ?>
<svg width="40.576%" height="64%" xmlns="http://www.w3.org/2000/svg" xmlns:xlink="http://www.w3.org/1999/xlink" xmlns:ev="http://www.w3.org/2001/xml-events" baseProfile="full" version="1.1"><defs /><polyline fill="rgb(150,50,50)" points="-8.78,35.2 -9.12,35.16 -9.46,35.03 -9.8,34.82 -10.15,34.56 -10.49,34.26 -10.83,33.88 -11.17,33.45 -11.51,32.98 -11.85,32.47 -12.15,32.0 -12.15,10.67 -11.85,10.2 -11.51,9.69 -11.17,9.22 -10.83,8.79 -10.49,8.41 -10.15,8.11 -9.8,7.85 -9.46,7.64 -9.12,7.51 -8.78,7.47 -8.44,7.51 -8.1,7.64 -7.76,7.85 -7.46,8.11 -7.12,8.41 -6.78,8.79 -6.43,9.22 -6.09,9.69 -5.75,10.2 -5.41,10.67 -4.73,11.69 -4.39,12.16 -4.04,12.59 -3.7,12.97 -3.36,13.27 -3.06,13.53 -2.72,13.74 -2.38,13.87 -1.7,13.87 -1.36,13.74 -1.02,13.53 -0.67,13.27 -0.33,12.97 0.01,12.59 0.35,12.16 0.69,11.69 1.03,11.18 1.37,10.71 1.37,10.67 1.67,10.2 2.01,9.69 2.36,9.22 2.7,8.79 3.04,8.41 3.38,8.11 3.72,7.85 4.06,7.64 4.4,7.51 4.74,7.47 5.09,7.51 5.43,7.64 5.77,7.85 6.07,8.11 6.41,8.41 6.75,8.79 7.09,9.22 7.43,9.69 7.77,10.2 8.12,10.67 8.8,11.69 9.14,12.16 9.48,12.59 9.82,12.97 10.16,13.27 10.46,13.53 10.8,13.74 11.14,13.87 11.83,13.87 12.17,13.74 12.51,13.53 12.85,13.27 13.19,12.97 13.53,12.59 13.88,12.16 14.22,11.69 14.56,11.18 14.9,10.71 14.9,10.67 15.2,10.2 15.54,9.69 15.88,9.22 16.22,8.79 16.56,8.41 16.9,8.11 17.25,7.85 17.59,7.64 17.93,7.51 18.27,7.47 18.61,7.51 18.95,7.64 19.29,7.85 19.59,8.11 19.93,8.41 20.28,8.79 20.62,9.22 20.96,9.69 21.3,10.2 21.64,10.67 22.32,11.69 22.66,12.16 23.01,12.59 23.35,12.97 23.69,13.27 23.99,13.53 24.33,13.74 24.67,13.87 25.35,13.87 25.69,13.74 26.04,13.53 26.38,13.27 26.72,12.97 27.06,12.59 27.4,12.16 27.74,11.69 28.08,11.18 28.42,10.71 28.42,31.96 28.08,31.49 27.74,30.98 27.4,30.51 27.06,30.08 26.72,29.7 26.38,29.4 26.04,29.14 25.69,28.93 25.35,28.8 24.67,28.8 24.33,28.93 23.99,29.14 23.69,29.4 23.35,29.7 23.01,30.08 22.66,30.51 22.32,30.98 21.64,32.0 21.3,32.47 20.96,32.98 20.62,33.45 20.28,33.88 19.93,34.26 19.59,34.56 19.29,34.82 18.95,35.03 18.61,35.16 18.27,35.2 17.93,35.16 17.59,35.03 17.25,34.82 16.9,34.56 16.56,34.26 16.22,33.88 15.88,33.45 15.54,32.98 15.2,32.47 14.9,32.0 14.9,31.96 14.56,31.49 14.22,30.98 13.88,30.51 13.53,30.08 13.19,29.7 12.85,29.4 12.51,29.14 12.17,28.93 11.83,28.8 11.14,28.8 10.8,28.93 10.46,29.14 10.16,29.4 9.82,29.7 9.48,30.08 9.14,30.51 8.8,30.98 8.12,32.0 7.77,32.47 7.43,32.98 7.09,33.45 6.75,33.88 6.41,34.26 6.07,34.56 5.77,34.82 5.43,35.03 5.09,35.16 4.74,35.2 4.4,35.16 4.06,35.03 3.72,34.82 3.38,34.56 3.04,34.26 2.7,33.88 2.36,33.45 2.01,32.98 1.67,32.47 1.37,32.0 1.37,31.96 1.03,31.49 0.69,30.98 0.35,30.51 0.01,30.08 -0.33,29.7 -0.67,29.4 -1.02,29.14 -1.36,28.93 -1.7,28.8 -2.38,28.8 -2.72,28.93 -3.06,29.14 -3.36,29.4 -3.7,29.7 -4.04,30.08 -4.39,30.51 -4.73,30.98 -5.41,32.0 -5.75,32.47 -6.09,32.98 -6.43,33.45 -6.78,33.88 -7.12,34.26 -7.46,34.56 -7.76,34.82 -8.1,35.03 -8.44,35.16" /></svg>